<svg xmlns="http://www.w3.org/2000/svg" viewBox="0 0 100 100" width="100" height="100">
  <!-- Background circle -->
  <circle cx="50" cy="50" r="48" fill="#0066CC" opacity="0.1"/>
  
  <!-- Hair -->
  <path d="M32 28 Q50 20, 68 28 L68 38 Q60 36, 50 36 Q40 36, 32 38 Z" fill="#8B4513"/>
  
  <!-- Head -->
  <circle cx="50" cy="38" r="18" fill="#F0C674"/>
  
  <!-- Body - business attire -->
  <path d="M35 55 Q50 50, 65 55 L65 80 L35 80 Z" fill="#1a365d"/>
  
  <!-- Collar -->
  <path d="M40 55 L50 60 L60 55 L60 58 L50 63 L40 58 Z" fill="#FFF"/>
  
  <!-- Tie -->
  <rect x="48" y="58" width="4" height="20" fill="#c41e3a"/>
  
  <!-- Arms -->
  <rect x="25" y="57" width="10" height="20" rx="5" fill="#F0C674"/>
  <rect x="65" y="57" width="10" height="20" rx="5" fill="#F0C674"/>
  
  <!-- Face features -->
  <circle cx="44" cy="38" r="1.5" fill="#333"/>
  <circle cx="56" cy="38" r="1.5" fill="#333"/>
  <path d="M45 43 Q50 45, 55 43" stroke="#333" stroke-width="1.5" fill="none" stroke-linecap="round"/>
  
  <!-- Glasses -->
  <circle cx="44" cy="38" r="6" stroke="#333" stroke-width="1.5" fill="none"/>
  <circle cx="56" cy="38" r="6" stroke="#333" stroke-width="1.5" fill="none"/>
  <line x1="50" y1="38" x2="50" y2="38" stroke="#333" stroke-width="1.5"/>
</svg>