<svg xmlns="http://www.w3.org/2000/svg" viewBox="0 0 100 100" width="100" height="100">
  <!-- Background circle -->
  <circle cx="50" cy="50" r="48" fill="#0066CC" opacity="0.1"/>
  
  <!-- Head -->
  <circle cx="50" cy="35" r="18" fill="#F0C674"/>
  
  <!-- Safety helmet -->
  <path d="M32 30 Q50 20, 68 30 L68 35 Q50 40, 32 35 Z" fill="#FFD700"/>
  <rect x="30" y="30" width="40" height="3" fill="#FFA500"/>
  
  <!-- Body -->
  <path d="M35 50 Q50 45, 65 50 L65 75 L35 75 Z" fill="#FF6B6B"/>
  
  <!-- High-vis vest stripes -->
  <rect x="35" y="60" width="30" height="3" fill="#FFD700" opacity="0.8"/>
  <rect x="35" y="68" width="30" height="3" fill="#FFD700" opacity="0.8"/>
  
  <!-- Arms -->
  <rect x="25" y="52" width="10" height="20" rx="5" fill="#F0C674"/>
  <rect x="65" y="52" width="10" height="20" rx="5" fill="#F0C674"/>
  
  <!-- Face features -->
  <circle cx="44" cy="35" r="1.5" fill="#333"/>
  <circle cx="56" cy="35" r="1.5" fill="#333"/>
  <path d="M45 40 Q50 42, 55 40" stroke="#333" stroke-width="1.5" fill="none" stroke-linecap="round"/>
</svg>